# xmcd CD database file
#
# Track frame offsets:
#	150
#	6680
#	15063
#	44348
#	71134
#	100355
#	119864
#	143699
#	160506
#	169253
#
# Disc length: 2311 seconds
#
# Revision: 2
# Processed by: cddbd v1.5PL3 Copyright (c) Steve Scherf et al.
# Submitted via: CDex 1.40Release
#
DISCID=8509050a
DTITLE=Enrique Rocha - La sagrada Biblia
DYEAR=1900
DGENRE=
TTITLE0=Obertura
TTITLE1=¿Que es la Biblia
TTITLE2=El Origen de todo
TTITLE3=La creación del Hombre y la mujer
TTITLE4=La primera pareja del mundo
TTITLE5=La formación de la primera familia
TTITLE6=El mensaje del arca de Noe
TTITLE7=Cuando acabo el dilubio
TTITLE8=Proverbios
TTITLE9=Invitación al proximo CD
EXTD=
EXTT0=
EXTT1=
EXTT2=
EXTT3=
EXTT4=
EXTT5=
EXTT6=
EXTT7=
EXTT8=
EXTT9=
PLAYORDER=
